<?xml version="1.0" standalone="no"?>
<!DOCTYPE svg PUBLIC "-//W3C//DTD SVG 20010904//EN"
 "http://www.w3.org/TR/2001/REC-SVG-20010904/DTD/svg10.dtd">
<svg version="1.0" xmlns="http://www.w3.org/2000/svg"
 width="700.000000pt" height="700.000000pt" viewBox="0 0 700.000000 700.000000"
 preserveAspectRatio="xMidYMid meet">
<metadata>
Created by potrace 1.11, written by Peter Selinger 2001-2013
</metadata>
<g transform="translate(0.000000,700.000000) scale(0.100000,-0.100000)"
fill="#000000" stroke="none">
<path d="M2078 5022 l-1178 -2 0 -280 0 -280 450 0 450 0 0 -1240 0 -1240 370
0 370 0 0 1240 0 1240 449 0 449 0 414 -1240 413 -1240 404 2 403 3 509 1510
c279 831 508 1513 509 1518 0 4 -183 7 -408 7 l-407 0 -299 -1092 c-164 -601
-301 -1098 -305 -1105 -3 -7 -141 482 -305 1085 -164 603 -301 1100 -305 1103
-10 10 -713 14 -1983 11z"/>
</g>
</svg>
